<?xml version="1.0" standalone="no"?>
<!DOCTYPE svg PUBLIC "-//W3C//DTD SVG 20010904//EN"
 "http://www.w3.org/TR/2001/REC-SVG-20010904/DTD/svg10.dtd">
<svg version="1.0" xmlns="http://www.w3.org/2000/svg"
 width="640.000000pt" height="640.000000pt" viewBox="0 0 640.000000 640.000000"
 preserveAspectRatio="xMidYMid meet">
<metadata>
Created by potrace 1.14, written by Peter Selinger 2001-2017
</metadata>
<g transform="translate(0.000000,640.000000) scale(0.100000,-0.100000)"
fill="#000000" stroke="none">
<path d="M3487 5694 c-10 -11 -129 -33 -177 -34 -43 0 -104 -19 -230 -69 -58
-23 -140 -35 -355 -51 -71 -5 -161 -14 -198 -20 -94 -14 -223 -77 -352 -170
-52 -38 -183 -185 -210 -235 -57 -109 -60 -112 -300 -277 -101 -69 -165 -177
-165 -279 0 -52 10 -80 41 -114 28 -31 53 -148 50 -238 -1 -55 3 -88 15 -113
20 -43 14 -50 -31 -37 -44 14 -58 -2 -24 -27 29 -23 80 -31 119 -20 35 10 35
11 15 -54 -27 -89 -14 -167 33 -210 27 -24 57 -15 42 13 -14 27 -12 110 4 146
l13 30 8 -30 c4 -16 14 -37 22 -46 19 -23 123 -43 179 -35 84 11 99 -31 33
-88 -36 -31 -40 -36 -24 -42 11 -5 33 1 56 13 40 22 49 21 49 -9 0 -28 30 -68
51 -68 16 0 19 8 19 51 0 27 4 48 9 45 9 -6 21 -76 47 -280 9 -72 27 -154 39
-186 27 -68 107 -190 186 -283 32 -37 57 -73 55 -80 -2 -6 -9 -34 -16 -62 -7
-27 -15 -61 -20 -75 -4 -14 -16 -53 -26 -88 -14 -49 -21 -62 -33 -57 -9 4 -65
6 -125 6 -97 -1 -115 -4 -166 -28 l-58 -27 -32 -90 c-36 -103 -55 -165 -76
-251 -34 -140 -30 -132 -76 -138 -51 -7 -72 -31 -94 -108 -14 -49 -20 -58 -44
-63 -34 -6 -37 -15 -45 -136 -8 -108 -25 -146 -80 -179 -36 -21 -47 -55 -24
-78 6 -6 13 -56 16 -111 6 -99 5 -101 -21 -125 -14 -14 -40 -52 -57 -86 -32
-63 -87 -119 -174 -176 -75 -49 -101 -82 -121 -155 -24 -91 -127 -302 -170
-351 -8 -8 -14 -19 -14 -23 0 -4 -20 -36 -45 -71 -25 -35 -54 -88 -64 -118
-21 -60 -51 -222 -51 -274 l0 -33 2319 0 2319 0 21 43 c40 84 36 189 -18 421
-22 95 -28 234 -11 265 5 10 14 43 19 72 6 30 18 85 27 124 16 65 16 76 0 185
-27 186 -43 269 -71 375 -15 55 -30 114 -34 130 -5 17 -23 62 -40 101 l-32 71
25 28 c14 15 26 38 26 50 0 12 7 37 16 54 18 37 14 94 -10 120 -13 14 -13 24
0 76 7 33 14 83 14 111 0 62 -17 87 -98 141 -91 61 -122 86 -122 97 0 6 9 22
20 36 30 39 25 64 -22 105 -24 20 -72 64 -108 99 -36 34 -90 78 -120 98 -30
19 -71 50 -91 69 -19 19 -71 60 -115 91 -43 32 -106 79 -139 104 -33 25 -73
55 -89 67 -17 12 -55 43 -86 68 -122 101 -240 149 -364 149 -72 0 -82 2 -107
26 -34 33 -30 68 8 53 32 -12 73 -12 73 1 0 6 -9 24 -21 39 -38 52 1 133 80
165 22 8 48 25 59 36 l20 21 51 -25 c50 -26 105 -34 115 -17 3 5 -12 25 -34
44 -75 65 -46 116 88 153 38 10 69 25 77 38 14 19 15 19 15 -18 0 -23 -8 -48
-20 -63 -11 -14 -17 -29 -14 -34 9 -16 44 -10 51 9 4 9 20 34 36 54 22 28 31
51 34 90 3 29 11 67 19 85 8 18 14 47 13 65 -2 76 -1 117 6 181 7 64 6 70 -29
140 l-36 72 25 49 c39 77 33 117 -43 292 -37 85 -97 180 -147 232 -31 31 -168
142 -176 142 -8 0 -81 48 -145 95 -90 66 -134 119 -164 195 -49 129 -102 191
-184 215 -49 15 -276 22 -289 9z m-1137 -279 c0 -6 -76 -45 -87 -45 -4 1 12
12 37 25 50 27 50 27 50 20z m-120 -68 c0 -2 -15 -16 -32 -33 l-33 -29 29 33
c28 30 36 37 36 29z m-110 -133 c0 -8 -4 -12 -10 -9 -5 3 -10 13 -10 21 0 8 5
12 10 9 6 -3 10 -13 10 -21z m-39 -18 c-7 -8 -10 -20 -6 -26 3 -5 2 -10 -4
-10 -19 0 -20 17 -3 38 9 11 19 19 21 17 2 -3 -2 -11 -8 -19z m-28 -57 c4 -15
2 -19 -9 -15 -12 5 -14 1 -9 -17 6 -17 5 -19 -5 -10 -8 7 -10 22 -6 37 8 31
22 34 29 5z m-32 -59 c6 0 7 -5 4 -10 -12 -19 -34 9 -27 33 l7 22 3 -22 c2
-13 8 -23 13 -23z m-24 -29 c0 -11 -5 -17 -9 -15 -4 3 -8 -3 -8 -12 0 -10 -2
-15 -5 -12 -8 8 5 58 15 58 5 0 8 -9 7 -19z m-42 -97 c-13 -16 -14 -15 -7 26
5 32 6 33 12 10 3 -14 1 -30 -5 -36z m-75 -7 c0 -2 -7 -24 -16 -50 -9 -28 -20
-44 -27 -40 -5 3 -24 9 -41 13 l-31 6 45 29 c25 15 47 32 48 36 3 8 22 13 22
6z m-40 -126 c0 -10 -15 -29 -34 -42 -19 -13 -30 -26 -25 -30 5 -3 0 -14 -12
-25 -13 -10 -19 -13 -15 -6 14 24 -47 1 -80 -30 -29 -28 -32 -28 -37 -9 -6 26
4 71 23 96 15 20 56 37 135 54 22 5 41 9 43 10 1 1 2 -7 2 -18z m-100 -120 c0
-5 -7 -11 -15 -15 -8 -3 -15 -12 -15 -20 0 -7 -7 -17 -15 -20 -16 -6 -16 -5
15 42 15 22 30 29 30 13z m-149 -138 c-14 -29 -30 -48 -34 -44 -11 11 10 151
26 169 9 12 14 7 23 -29 9 -40 8 -49 -15 -96z m1014 2 c17 -51 28 -104 28
-145 2 -56 -3 -74 -33 -133 -41 -79 -91 -133 -115 -123 -9 3 -13 10 -10 16 3
6 -1 13 -9 16 -9 3 -16 17 -16 30 0 18 -9 27 -35 38 -31 13 -35 19 -35 50 0
22 11 55 29 83 16 27 39 73 52 103 12 30 28 62 36 71 7 8 13 21 13 27 0 7 5
12 10 12 6 0 10 5 10 11 0 15 33 40 42 31 3 -4 18 -43 33 -87z m-968 -157 c-3
-8 -6 -5 -6 6 -1 11 2 17 5 13 3 -3 4 -12 1 -19z m2968 -62 c17 -45 17 -91 0
-91 -5 0 -12 20 -15 45 -4 36 -9 44 -22 42 -21 -3 -22 -1 -7 32 15 32 23 27
44 -28z m-2965 27 c-1 -24 -28 -82 -29 -62 -2 29 11 79 20 79 5 0 9 -8 9 -17z
m103 -63 c20 -28 10 -66 -25 -95 -37 -32 -29 -47 18 -33 45 12 60 -4 36 -38
-27 -37 -60 -28 -94 26 -21 32 -24 68 -9 105 24 59 49 70 74 35z m2842 -99 c3
-5 1 -12 -5 -16 -5 -3 -10 1 -10 9 0 18 6 21 15 7z m-2225 -113 c35 -67 100
-118 87 -68 -4 15 0 20 14 20 16 0 19 -8 19 -56 0 -30 5 -64 10 -75 6 -10 8
-19 4 -19 -5 0 -94 61 -94 65 0 0 16 -1 36 -3 33 -4 35 -3 24 14 -7 11 -34 29
-61 42 -27 12 -49 29 -49 38 0 8 -6 14 -13 12 -7 -2 -13 2 -14 7 0 6 3 9 7 8
4 -1 7 11 6 27 -1 17 -1 30 0 30 1 0 12 -19 24 -42z m910 17 c0 -8 -4 -15 -10
-15 -5 0 -10 7 -10 15 0 8 5 15 10 15 6 0 10 -7 10 -15z m-1587 -9 c21 -16 22
-26 2 -26 -8 0 -19 9 -25 20 -12 23 -3 25 23 6z m2937 -30 c0 -3 -4 -8 -10
-11 -5 -3 -10 -1 -10 4 0 6 5 11 10 11 6 0 10 -2 10 -4z m-678 -103 c8 -10 21
-37 30 -60 15 -39 15 -42 -3 -46 -12 -3 -24 4 -34 19 -18 28 -35 30 -75 9 -28
-14 -30 -14 -30 2 0 10 11 35 25 56 29 41 62 49 87 20z m-1187 -53 c19 -36 59
-64 81 -56 8 3 25 -1 37 -9 12 -8 33 -15 48 -15 17 0 32 -9 42 -23 8 -13 35
-34 59 -47 64 -33 107 -23 168 41 l47 49 97 5 c53 2 96 1 96 -2 0 -14 -34 -43
-51 -43 -11 0 -19 -9 -21 -22 -4 -31 -94 -75 -179 -90 -54 -8 -81 -7 -144 5
-43 9 -82 14 -87 11 -19 -12 -6 -22 35 -27 83 -11 172 -31 179 -41 4 -5 48 6
110 27 56 21 110 37 119 37 25 0 28 -40 7 -101 -10 -30 -22 -84 -26 -121 l-8
-68 25 -1 c14 0 35 -2 46 -4 11 -2 40 7 64 21 24 13 56 24 72 24 18 0 32 7 39
20 6 11 17 20 25 20 17 0 19 18 6 39 -7 12 -13 12 -40 0 -17 -8 -31 -17 -31
-21 0 -5 -7 -8 -16 -8 -14 0 -15 7 -10 41 6 37 5 40 -13 34 -23 -7 -35 9 -26
33 6 16 7 16 16 0 6 -10 17 -18 24 -18 8 0 15 -7 15 -15 0 -20 43 -29 70 -15
14 8 20 18 17 30 -3 13 2 20 19 24 19 5 24 13 24 36 0 17 4 30 8 30 4 0 13 15
20 34 10 28 52 80 52 64 0 -2 -11 -32 -25 -66 -31 -75 -31 -78 -2 -86 21 -6
21 -8 -15 -40 -31 -27 -38 -40 -38 -70 0 -34 2 -36 34 -36 19 0 43 8 53 18 40
35 123 139 123 153 0 8 16 39 35 69 19 30 35 60 35 66 0 6 6 17 14 23 11 9 15
3 21 -34 8 -54 13 -46 -117 -180 -53 -55 -108 -115 -123 -132 -25 -31 -28 -32
-48 -18 -26 18 -60 19 -90 4 -29 -16 -37 -28 -37 -61 0 -14 -4 -28 -10 -30 -5
-1 -12 -25 -14 -51 -4 -40 -13 -58 -50 -101 -25 -29 -66 -71 -92 -92 -26 -22
-63 -52 -81 -68 -19 -16 -56 -45 -82 -65 -27 -20 -77 -60 -111 -89 -78 -66
-135 -95 -241 -122 -61 -16 -105 -21 -162 -18 -75 3 -80 5 -109 37 -29 33 -30
36 -26 112 5 80 23 119 55 119 12 0 12 4 0 26 -10 19 -23 27 -46 29 -23 2 -29
0 -22 -9 11 -13 4 -43 -45 -216 -18 -63 -36 -133 -39 -155 -4 -22 -13 -47 -20
-55 -7 -8 -16 -25 -19 -37 -4 -13 -12 -23 -18 -23 -6 0 -8 8 -5 18 19 66 87
320 101 382 10 41 20 83 22 93 4 13 -1 17 -18 17 -14 0 -19 -3 -11 -8 13 -8 2
-75 -20 -120 -11 -23 -11 -22 -53 22 -24 24 -63 75 -89 112 -25 38 -49 74 -53
79 -39 51 -78 207 -88 362 -8 104 -17 93 86 96 30 1 60 5 65 8 6 4 25 10 44
14 l34 7 -22 -37 c-15 -26 -19 -41 -11 -50 5 -6 7 -15 3 -18 -3 -4 -2 -7 4 -7
37 0 121 204 106 259 -3 11 -12 21 -19 21 -8 0 -14 2 -14 4 0 2 -3 13 -7 23
-6 17 -5 17 15 -1 20 -17 22 -18 28 -2 4 10 16 22 28 27 11 6 37 19 56 30 54
29 96 25 115 -11z m773 -15 c22 -34 22 -36 5 -59 -15 -21 -72 -56 -89 -56 -3
0 11 23 31 51 26 37 34 54 26 62 -13 13 -15 37 -3 37 4 0 17 -16 30 -35z
m-474 -31 c9 -8 16 -29 16 -45 0 -26 -3 -29 -30 -29 -27 0 -30 3 -30 33 0 18
5 38 12 45 15 15 13 15 32 -4z m-792 -19 c19 -8 43 -26 52 -40 9 -14 23 -25
32 -25 8 0 13 -4 10 -9 -7 -11 44 -22 71 -15 13 4 23 17 27 35 6 32 20 38 30
13 19 -51 -31 -92 -117 -96 -82 -3 -123 31 -142 120 -8 37 -8 37 37 17z m116
-17 c-3 -34 -20 -42 -26 -13 -5 22 5 45 18 45 7 0 10 -14 8 -32z m1468 17 c-8
-8 -18 -15 -22 -15 -3 0 -1 7 6 15 7 8 17 15 22 15 5 0 3 -7 -6 -15z m-1243
-1127 c-51 -41 -67 -38 -59 11 3 22 11 52 17 68 l11 28 33 -39 33 -40 -35 -28z
m-265 -157 c69 -8 107 -24 97 -41 -3 -4 -20 -5 -39 0 -22 5 -41 3 -57 -6 -14
-8 -18 -13 -9 -14 9 0 10 -3 5 -9 -14 -14 -162 5 -191 24 -34 22 -30 31 19 42
54 13 85 14 175 4z m-48 -134 c57 -15 85 -31 77 -45 -5 -6 -21 -5 -49 5 -48
16 -130 20 -207 8 -51 -7 -54 -6 -39 9 33 33 141 44 218 23z m-86 -66 c3 -5
-5 -20 -17 -33 -13 -14 -21 -30 -20 -35 6 -17 -66 -68 -78 -56 -7 7 -5 14 6
23 20 16 20 54 1 47 -16 -6 -40 16 -29 26 3 4 14 7 23 7 10 0 22 6 28 13 12
14 78 21 86 8z m-83 -201 c29 -16 23 -31 -8 -24 -37 9 -44 14 -38 25 8 12 22
11 46 -1z m-21 -56 c0 -9 -5 -14 -12 -12 -18 6 -21 28 -4 28 9 0 16 -7 16 -16z
m-135 -86 c65 -43 125 -101 125 -121 0 -36 -85 -43 -98 -8 -3 9 -13 21 -21 28
-21 16 -153 15 -164 0 -8 -12 2 41 10 56 3 5 12 6 21 2 13 -5 12 -2 -3 15 -17
19 -17 21 0 40 27 30 74 25 130 -12z m-129 -148 c7 0 25 -5 41 -12 15 -6 50
-10 76 -9 57 3 120 -22 115 -46 -6 -31 -140 -57 -176 -35 -20 14 -124 -26
-149 -56 l-23 -27 1 65 c2 107 9 124 49 131 19 3 39 2 45 -3 5 -4 15 -8 21 -8z
m319 -171 c212 -45 308 -93 392 -195 21 -26 54 -64 74 -84 54 -55 102 -200 67
-200 -6 0 -20 -7 -30 -16 -14 -13 -21 -14 -32 -5 -13 11 -14 8 -9 -23 7 -42
-9 -66 -44 -66 -35 0 -63 -18 -63 -40 0 -11 -4 -20 -10 -20 -5 0 -10 -18 -10
-39 0 -47 -12 -58 -43 -39 -16 10 -28 11 -44 4 -22 -10 -47 -52 -39 -65 12
-19 16 -74 6 -86 -6 -7 -33 -16 -60 -20 l-49 -7 3 -41 c2 -40 25 -117 37 -127
3 -3 9 -14 13 -25 9 -25 -43 33 -81 90 -41 61 -223 255 -350 373 -35 32 -63
64 -63 70 0 37 87 23 138 -22 67 -58 165 -119 216 -132 28 -7 55 -19 61 -26
12 -16 60 -17 75 -2 18 18 3 51 -31 64 -17 7 -69 52 -117 100 -48 48 -107 101
-132 117 -25 17 -55 39 -66 49 -12 11 -45 33 -73 49 -51 30 -63 45 -36 45 17
0 35 30 35 60 0 12 3 20 8 18 4 -2 34 -17 67 -34 33 -17 70 -35 82 -38 45 -14
363 -221 363 -237 0 -5 7 -9 15 -9 18 0 19 5 3 33 -7 12 -11 31 -10 42 3 22
-49 58 -71 49 -7 -2 -26 9 -42 26 -16 16 -24 30 -19 30 5 0 18 -11 28 -25 10
-14 24 -25 29 -25 6 0 -4 15 -22 34 -21 22 -39 32 -49 29 -12 -5 -14 -1 -9 16
4 16 2 21 -7 18 -12 -5 -61 29 -104 71 -20 18 -72 39 -122 47 -59 10 -191 67
-204 88 -19 31 12 36 183 32 155 -4 166 -6 190 -28 14 -13 51 -41 81 -62 77
-54 219 -184 236 -217 8 -16 20 -28 26 -28 6 0 22 -10 35 -22 l23 -21 0 25 c0
19 -9 32 -35 47 -36 21 -44 36 -23 43 8 3 -3 19 -27 41 -28 25 -46 35 -59 31
-12 -4 -16 -2 -12 5 4 6 0 11 -11 12 -11 0 -13 3 -5 6 6 2 10 9 7 13 -3 5 -13
6 -21 3 -10 -4 -17 2 -21 16 -3 11 -11 21 -18 21 -7 0 -15 4 -17 8 -10 23
-186 122 -217 122 -32 0 -104 30 -123 50 -11 11 -25 20 -33 20 -17 0 -28 17
-20 30 8 13 58 7 190 -21z m-355 -119 c0 -10 5 -22 10 -25 18 -11 10 -25 -14
-25 -13 0 -35 -9 -49 -20 -14 -11 -30 -20 -37 -20 -6 0 -23 -11 -38 -25 -15
-14 -30 -25 -33 -25 -4 0 -9 19 -12 43 -2 23 -8 49 -11 57 -11 27 49 55 120
57 57 2 64 0 64 -17z m5 -80 c3 -5 2 -10 -4 -10 -5 0 -13 5 -16 10 -3 6 -2 10
4 10 5 0 13 -4 16 -10z m992 -56 c13 -28 3 -78 -12 -55 -4 8 -11 29 -15 47
-10 41 9 47 27 8z m-317 -44 c0 -5 -5 -10 -11 -10 -5 0 -7 5 -4 10 3 6 8 10
11 10 2 0 4 -4 4 -10z m-796 -99 c-12 -12 -43 -18 -43 -8 -1 4 -1 21 -1 38 l0
32 27 -27 c16 -16 23 -30 17 -35z m16 -41 c13 -24 33 -26 50 -5 22 27 140 15
140 -14 0 -5 -15 -14 -32 -21 -18 -7 -47 -19 -65 -26 -17 -8 -44 -14 -60 -14
-37 -1 -63 -22 -63 -52 0 -13 -11 -34 -24 -45 -13 -11 -26 -27 -29 -34 -11
-30 -36 25 -37 81 -1 30 -3 63 -5 72 -5 25 16 47 60 63 52 18 52 18 65 -5z
m3150 -425 c7 -8 8 -15 2 -15 -5 0 -15 7 -22 15 -7 8 -8 15 -2 15 5 0 15 -7
22 -15z m135 -35 c3 -5 1 -10 -4 -10 -6 0 -11 5 -11 10 0 6 2 10 4 10 3 0 8
-4 11 -10z m-105 -250 c0 -5 -7 -7 -15 -4 -8 4 -15 8 -15 10 0 2 7 4 15 4 8 0
15 -4 15 -10z m-2509 -32 c11 -21 11 -22 -4 -9 -10 7 -17 17 -17 22 0 15 9 10
21 -13z m2464 -36 c-3 -3 -11 0 -18 7 -9 10 -8 11 6 5 10 -3 15 -9 12 -12z
m35 -12 c0 -5 -2 -10 -4 -10 -3 0 -8 5 -11 10 -3 6 -1 10 4 10 6 0 11 -4 11
-10z m-3850 -145 c-7 -9 -15 -13 -19 -10 -3 3 1 10 9 15 21 14 24 12 10 -5z
m3872 -7 c-9 -9 -15 -9 -24 0 -9 9 -7 12 12 12 19 0 21 -3 12 -12z m-3893 -59
c-17 -10 -24 4 -14 29 6 16 7 16 17 -2 8 -14 7 -21 -3 -27z m4011 12 c0 -6 -4
-13 -10 -16 -5 -3 -10 1 -10 9 0 9 5 16 10 16 6 0 10 -4 10 -9z m135 -1 c3 -5
1 -10 -4 -10 -6 0 -11 5 -11 10 0 6 2 10 4 10 3 0 8 -4 11 -10z m-264 -17 c13
-16 12 -17 -3 -4 -10 7 -18 15 -18 17 0 8 8 3 21 -13z m-3903 -40 c1 -24 0
-25 -9 -10 -5 9 -7 22 -4 27 9 15 10 13 13 -17z m3782 3 c0 -3 -4 -8 -10 -11
-5 -3 -10 -1 -10 4 0 6 5 11 10 11 6 0 10 -2 10 -4z m125 -144 c-3 -3 -11 0
-18 7 -9 10 -8 11 6 5 10 -3 15 -9 12 -12z"/>
<path d="M2910 3701 c0 -10 7 -22 16 -25 14 -5 15 -4 5 8 -7 8 -10 20 -6 26 3
5 1 10 -4 10 -6 0 -11 -9 -11 -19z"/>
<path d="M3093 3643 c9 -2 23 -2 30 0 6 3 -1 5 -18 5 -16 0 -22 -2 -12 -5z"/>
<path d="M2442 3418 c6 -18 17 -40 25 -49 8 -9 18 -29 22 -45 4 -15 13 -30 20
-32 20 -7 7 36 -31 102 -37 62 -53 73 -36 24z"/>
<path d="M2442 3350 c0 -14 2 -19 5 -12 2 6 2 18 0 25 -3 6 -5 1 -5 -13z"/>
<path d="M2210 1425 c0 -11 28 -35 40 -35 6 0 10 6 8 13 -3 6 -9 12 -14 12 -5
0 -15 4 -21 8 -7 5 -13 5 -13 2z"/>
</g>
</svg>
